<?xml version="1.0" encoding="UTF-8"?>
<svg width="18px" height="15px" viewBox="0 0 18 15" version="1.1" xmlns="http://www.w3.org/2000/svg" xmlns:xlink="http://www.w3.org/1999/xlink">
    <!-- Generator: Sketch 51.1 (57501) - http://www.bohemiancoding.com/sketch -->
    <title>icon_follow_normal copy 11</title>
    <desc>Created with Sketch.</desc>
    <defs></defs>
    <g id="Desktop" stroke="none" stroke-width="1" fill="none" fill-rule="evenodd">
        <g id="Desktop_search-page_雜誌" transform="translate(-410.000000, -357.000000)" fill="#E85364">
            <g id="Group" transform="translate(410.000000, 357.000000)">
                <path d="M12.816204,0 C12.784295,0 12.7532041,0 12.7221132,0.000816815509 C11.3745698,0.0245044653 10.0294809,0.560335439 9.00020974,1.58625572 C7.97093856,0.560335439 6.62584967,0.0245044653 5.27830624,0.000816815509 C5.24721538,0 5.21612451,0 5.18421547,0 C3.86858108,0 2.56031032,0.491722936 1.55640274,1.49232193 C0.989403592,2.0591919 0.526313379,2.74123285 0.283313744,3.45594642 C0.0386777477,4.17065999 -0.0365948665,4.83391418 0.0157686912,5.6196907 C0.244859256,8.23595077 2.26167441,10.3278153 4.50921649,11.905086 C6.75348584,13.4823568 9.00020974,15 9.00020974,15 C9.00020974,15 11.2469336,13.4823568 13.491203,11.905086 C15.7387451,10.3278153 17.7555602,8.23595077 17.9838326,5.6196907 C18.0370143,4.83391418 17.9617417,4.17065999 17.7171057,3.45594642 C17.4741061,2.74123285 17.0110159,2.0591919 16.4423804,1.49232193 C15.4401092,0.491722936 14.1310202,0 12.816204,0" id="icon_follow_normal-copy-11"></path>
            </g>
        </g>
    </g>
</svg>