<svg id="KM_logo_dark_horizontal" data-name="KM logo_dark_horizontal" xmlns="http://www.w3.org/2000/svg" width="141.695" height="36" viewBox="0 0 141.695 36">
    <defs>
        <clipPath id="clip-path">
            <path id="Rectangle_3523" data-name="Rectangle 3523" class="cls-1" d="M0 0h141.695v36H0z"/>
        </clipPath>
        <style>
            .cls-1{fill:#008159}.cls-3{fill:#00a270}.cls-4{fill:#0e2046}
        </style>
    </defs>
    <g id="Group_8263" data-name="Group 8263" style="clip-path:url(#clip-path)">
        <path id="Path_2753" data-name="Path 2753" class="cls-1" d="M600.681 99.5a5.029 5.029 0 0 0-2.625.735V99.6h-2.427v10.517h2.427v-6.17a2.021 2.021 0 0 1 4.043 0v6.17h2.419v-6.78a3.838 3.838 0 0 0-3.838-3.838" transform="translate(-475.165 -79.376)"/>
        <path id="Path_2754" data-name="Path 2754" class="cls-1" d="M255.128 99.5a5.033 5.033 0 0 0-3.5 1.411 3.829 3.829 0 0 0-2.972-1.411 5.027 5.027 0 0 0-2.624.735V99.6h-2.427v10.517h2.427v-6.17a2.021 2.021 0 1 1 4.043 0v6.17h2.425v-6.17a2.021 2.021 0 1 1 4.043 0v6.17h2.419v-6.78a3.838 3.838 0 0 0-3.838-3.838" transform="translate(-194.337 -79.376)"/>
        <path id="Path_2755" data-name="Path 2755" class="cls-1" d="M335.9 99.6v.773a5.36 5.36 0 1 0 0 8.97v.773h2.427V99.6zm-2.933 8.191a2.933 2.933 0 1 1 2.933-2.933 2.933 2.933 0 0 1-2.933 2.933" transform="translate(-261.348 -79.376)"/>
        <path id="Path_2756" data-name="Path 2756" class="cls-1" d="M457.9 99.6v.773a5.36 5.36 0 1 0 0 8.97v.773h2.427V99.6zm-2.933 8.191a2.933 2.933 0 1 1 2.933-2.933 2.933 2.933 0 0 1-2.933 2.933" transform="translate(-358.674 -79.376)"/>
        <path id="Rectangle_3519" data-name="Rectangle 3519" class="cls-1" transform="translate(115.606 20.225)" d="M0 0h2.427v10.517H0z"/>
        <path id="Rectangle_3520" data-name="Rectangle 3520" class="cls-1" transform="translate(115.606 16.787)" d="M0 0h2.427v2.427H0z"/>
        <path id="Path_2757" data-name="Path 2757" class="cls-1" d="M396.9 99.6v.773a5.36 5.36 0 1 0 0 8.97v.773h-.005a2.931 2.931 0 0 1-2.928 2.831h-2.422v2.427h2.427a5.358 5.358 0 0 0 5.352-5.258V99.6zm-2.933 8.191a2.933 2.933 0 1 1 2.933-2.933 2.933 2.933 0 0 1-2.933 2.933" transform="translate(-310.011 -79.376)"/>
        <path id="Path_2758" data-name="Path 2758" class="cls-1" d="M658.184 106.073a5.36 5.36 0 1 0-.442 1.213h-3.132a2.93 2.93 0 0 1-4.313-1.213h7.887zm-5.22-4.146a2.931 2.931 0 0 1 2.667 1.719H650.3a2.931 2.931 0 0 1 2.667-1.719" transform="translate(-516.629 -79.376)"/>
        <path id="Path_2759" data-name="Path 2759" class="cls-1" d="M523.706 100h-9.1v2.427h5.643l-5.649 5.663v2.427h9.1v-2.427h-5.643l5.643-5.663z" transform="translate(-410.527 -79.775)"/>
        <g id="Group_8270" data-name="Group 8270">
            <path id="Path_2760" data-name="Path 2760" class="cls-3" d="M600.681 99.5a5.029 5.029 0 0 0-2.625.735V99.6h-2.427v10.517h2.427v-6.17a2.021 2.021 0 0 1 4.043 0v6.17h2.419v-6.78a3.838 3.838 0 0 0-3.838-3.838" transform="translate(-475.165 -79.377)"/>
            <path id="Path_2761" data-name="Path 2761" class="cls-3" d="M255.128 99.5a5.033 5.033 0 0 0-3.5 1.411 3.829 3.829 0 0 0-2.972-1.411 5.027 5.027 0 0 0-2.624.735V99.6h-2.427v10.517h2.427v-6.17a2.021 2.021 0 1 1 4.043 0v6.17h2.425v-6.17a2.021 2.021 0 1 1 4.043 0v6.17h2.419v-6.78a3.838 3.838 0 0 0-3.838-3.838" transform="translate(-194.337 -79.377)"/>
            <path id="Path_2762" data-name="Path 2762" class="cls-3" d="M335.9 99.6v.773a5.36 5.36 0 1 0 0 8.97v.773h2.427V99.6zm-2.933 8.191a2.933 2.933 0 1 1 2.933-2.933 2.933 2.933 0 0 1-2.933 2.933" transform="translate(-261.348 -79.377)"/>
            <path id="Path_2763" data-name="Path 2763" class="cls-3" d="M457.9 99.6v.773a5.36 5.36 0 1 0 0 8.97v.773h2.427V99.6zm-2.933 8.191a2.933 2.933 0 1 1 2.933-2.933 2.933 2.933 0 0 1-2.933 2.933" transform="translate(-358.674 -79.377)"/>
            <path id="Rectangle_3521" data-name="Rectangle 3521" class="cls-3" transform="translate(115.605 20.225)" d="M0 0h2.427v10.517H0z"/>
            <path id="Rectangle_3522" data-name="Rectangle 3522" class="cls-3" transform="translate(115.605 16.787)" d="M0 0h2.427v2.427H0z"/>
            <path id="Path_2764" data-name="Path 2764" class="cls-3" d="M396.9 99.6v.773a5.36 5.36 0 1 0 0 8.97v.773h-.005a2.931 2.931 0 0 1-2.928 2.831h-2.422v2.427h2.427a5.358 5.358 0 0 0 5.352-5.258V99.6zm-2.933 8.191a2.933 2.933 0 1 1 2.933-2.933 2.933 2.933 0 0 1-2.933 2.933" transform="translate(-310.011 -79.377)"/>
            <path id="Path_2765" data-name="Path 2765" class="cls-3" d="M658.184 106.073a5.36 5.36 0 1 0-.442 1.213h-3.132a2.93 2.93 0 0 1-4.313-1.213h7.887zm-5.22-4.146a2.931 2.931 0 0 1 2.667 1.719H650.3a2.931 2.931 0 0 1 2.667-1.719" transform="translate(-516.629 -79.377)"/>
            <path id="Path_2766" data-name="Path 2766" class="cls-3" d="M523.706 100h-9.1v2.427h5.643l-5.649 5.663v2.427h9.1v-2.427h-5.643l5.643-5.663z" transform="translate(-410.527 -79.775)"/>
        </g>
        <path id="Path_2767" data-name="Path 2767" class="cls-3" d="M97.662 6H81v2.525c1.906 0 6.817-.044 6.808 0-.183 1.356-2.687 18.8-2.687 18.8a6.839 6.839 0 0 0 1.637 5.475c2.735 2.735 7.227 2.543 7.227 2.543l3.4-26.946.092-.763.033-.234v-.065z" transform="translate(-64.619 -4.787)"/>
        <path id="Path_2768" data-name="Path 2768" class="cls-4" d="M0 36.274h16.674v-2.521c-1.906 0-6.817.044-6.808 0 .183-1.356 2.687-18.8 2.687-18.8a6.8 6.8 0 0 0-1.64-5.47C8.182 6.746 3.686 6.938 3.686 6.938L.284 33.884l-.1.776-.027.24v.061z" transform="translate(0 -5.532)"/>
        <path id="Path_2769" data-name="Path 2769" class="cls-1" d="M253.613 4.045h-3.432l-4.149 4.149V0H243.6v14.562h2.427v-2.936l1.773-1.768 2.889 4.7h2.848l-3.973-6.469z" transform="translate(-194.337)"/>
        <path id="Path_2770" data-name="Path 2770" class="cls-1" d="M302.465 19.5a5.36 5.36 0 1 0 5.36 5.36 5.36 5.36 0 0 0-5.36-5.36m0 8.292a2.933 2.933 0 1 1 2.935-2.932 2.933 2.933 0 0 1-2.933 2.933" transform="translate(-237.016 -15.556)"/>
        <path id="Path_2771" data-name="Path 2771" class="cls-1" d="M363.124 19.5a5.028 5.028 0 0 0-2.625.735V19.6h-2.427v10.518h2.428v-6.17a2.021 2.021 0 0 1 4.043 0v6.17h2.419v-6.78a3.838 3.838 0 0 0-3.838-3.838" transform="translate(-285.653 -15.556)"/>
        <path id="Path_2772" data-name="Path 2772" class="cls-1" d="M415.408 19.5a5.36 5.36 0 1 0 5.36 5.36 5.36 5.36 0 0 0-5.36-5.36m0 8.292a2.933 2.933 0 1 1 2.933-2.933 2.933 2.933 0 0 1-2.933 2.933" transform="translate(-327.117 -15.556)"/>
        <g id="Group_8269" data-name="Group 8269">
            <path id="Path_2773" data-name="Path 2773" class="cls-4" d="M253.613 4.045h-3.432l-4.149 4.149V0H243.6v14.562h2.427v-2.936l1.773-1.768 2.889 4.7h2.848l-3.973-6.469z" transform="translate(-194.337)"/>
            <path id="Path_2774" data-name="Path 2774" class="cls-4" d="M302.465 19.5a5.36 5.36 0 1 0 5.36 5.36 5.36 5.36 0 0 0-5.36-5.36m0 8.292a2.933 2.933 0 1 1 2.935-2.932 2.933 2.933 0 0 1-2.933 2.933" transform="translate(-237.017 -15.557)"/>
            <path id="Path_2775" data-name="Path 2775" class="cls-4" d="M363.124 19.5a5.028 5.028 0 0 0-2.625.735V19.6h-2.427v10.518h2.428v-6.17a2.021 2.021 0 0 1 4.043 0v6.17h2.419v-6.78a3.838 3.838 0 0 0-3.838-3.838" transform="translate(-285.653 -15.557)"/>
            <path id="Path_2776" data-name="Path 2776" class="cls-4" d="M415.408 19.5a5.36 5.36 0 1 0 5.36 5.36 5.36 5.36 0 0 0-5.36-5.36m0 8.292a2.933 2.933 0 1 1 2.933-2.933 2.933 2.933 0 0 1-2.933 2.933" transform="translate(-327.117 -15.557)"/>
        </g>
    </g>
</svg>
