<svg xmlns="http://www.w3.org/2000/svg" width="19.3" height="19.3" viewBox="0 0 19.3 19.3">
    <g fill="#fff">
        <g stroke-miterlimit="10">
            <path d="M21.667 28.5c-.707-.48-2.338-1.595-3.95-2.73-2.519-1.77-3.882-3.648-4.054-5.581-.045-.688.022-1.235.225-1.827.19-.56.57-1.144 1.07-1.645.806-.805 1.884-1.249 3.035-1.249h.078c1.179.021 2.293.497 3.136 1.34l.46.459.459-.46c.844-.842 1.957-1.318 3.136-1.338l.078-.001c1.151 0 2.229.444 3.033 1.249.502.5.882 1.084 1.072 1.643.203.595.27 1.141.224 1.828-.17 1.934-1.534 3.812-4.052 5.582-1.613 1.135-3.243 2.25-3.95 2.73z" transform="translate(-5.85 -5.85) translate(-6.2 -6.685)"/>
            <path fill="#222" d="M21.667 27.714c.815-.556 2.202-1.509 3.577-2.476 2.35-1.653 3.621-3.369 3.777-5.1.04-.593-.018-1.062-.191-1.569-.159-.466-.484-.96-.916-1.393-.682-.682-1.596-1.058-2.574-1.058h-.066c-1.01.018-1.965.426-2.689 1.15l-.918.918-.92-.918c-.723-.724-1.678-1.132-2.688-1.15h-.066c-.977 0-1.892.376-2.575 1.058-.431.432-.756.927-.915 1.396-.173.504-.23.973-.192 1.566.157 1.732 1.428 3.448 3.78 5.1 1.373.968 2.76 1.92 3.576 2.476m0 1.573s-2.164-1.464-4.325-2.986c-2.164-1.521-4.106-3.539-4.327-6.062-.05-.758.022-1.398.258-2.087.234-.69.68-1.348 1.225-1.895.967-.966 2.228-1.439 3.495-1.439h.09c1.297.024 2.592.54 3.584 1.53.99-.99 2.286-1.506 3.584-1.53h.09c1.266 0 2.527.473 3.492 1.44.548.546.994 1.204 1.228 1.894.235.689.308 1.329.256 2.087-.22 2.523-2.161 4.54-4.326 6.062-2.16 1.522-4.324 2.986-4.324 2.986z" transform="translate(-5.85 -5.85) translate(-6.2 -6.685)"/>
        </g>
    </g>
</svg>
